<?xml version="1.0" standalone="no"?>
<!DOCTYPE svg PUBLIC "-//W3C//DTD SVG 20010904//EN"
 "http://www.w3.org/TR/2001/REC-SVG-20010904/DTD/svg10.dtd">
<svg version="1.0" xmlns="http://www.w3.org/2000/svg"
 width="512.000000pt" height="512.000000pt" viewBox="0 0 512.000000 512.000000"
 preserveAspectRatio="xMidYMid meet">
<metadata>
Created by potrace 1.16, written by Peter Selinger 2001-2019
</metadata>
<g transform="translate(0.000000,512.000000) scale(0.100000,-0.100000)"
fill="#fb1" stroke="none">
<path d="M1231 4424 c-176 -47 -319 -192 -365 -370 -84 -326 163 -644 501
-644 390 0 635 416 450 764 -107 202 -362 310 -586 250z"/>
<path d="M3621 4424 c-381 -102 -510 -584 -230 -863 281 -281 764 -149 863
235 71 274 -96 558 -369 629 -73 19 -192 18 -264 -1z"/>
<path d="M2225 2730 c-27 -4 -63 -13 -78 -19 -134 -53 -228 -210 -213 -354 10
-96 42 -149 205 -337 173 -200 165 -176 107 -330 -193 -515 -859 -656 -1249
-266 -138 138 -227 353 -227 550 0 97 -62 185 -159 229 -53 23 -167 20 -216
-6 -42 -22 -93 -74 -118 -121 -19 -36 -22 -56 -21 -156 4 -453 284 -893 702
-1104 103 -52 259 -102 377 -122 154 -25 364 -15 520 25 252 65 491 214 663
415 l42 49 37 -44 c177 -213 441 -371 728 -435 109 -24 341 -29 457 -10 269
44 500 160 694 348 245 237 385 555 388 883 1 95 -2 116 -21 151 -47 88 -120
135 -220 142 -71 5 -116 -8 -172 -48 -66 -48 -93 -106 -103 -222 -12 -142 -32
-219 -85 -328 -40 -81 -61 -109 -142 -191 -82 -82 -110 -102 -191 -142 -137
-68 -200 -82 -355 -81 -120 0 -138 3 -225 33 -254 86 -441 286 -505 539 l-16
63 48 57 c26 31 95 110 152 177 57 66 114 143 127 171 84 180 -8 398 -198 471
-36 14 -95 17 -363 19 -176 1 -342 -1 -370 -6z"/>
</g>
</svg>
